<svg width="40" height="49" viewBox="0 0 40 49" xmlns="http://www.w3.org/2000/svg"><path fill-rule="evenodd" clip-rule="evenodd" d="M35.73 7.25c0 .48.34.9.82 1a4.08 4.08 0 0 1 3.26 4v32.67A4.08 4.08 0 0 1 35.73 49H6.13A6.13 6.13 0 0 1 0 42.87V6.13A6.13 6.13 0 0 1 6.13 0h25.52a4.08 4.08 0 0 1 4.08 4.08v3.17zm-5.1 31.88A10.23 10.23 0 0 0 20.4 29.6c-5.21 0-9.6 3.9-10.19 9.08a1.02 1.02 0 0 0 1.02 1.13h18.75a.64.64 0 0 0 .64-.68zm-16.38-17.7a6.15 6.15 0 1 1 12.3-.04 6.15 6.15 0 0 1-12.3.05zM6.12 4.09a2.04 2.04 0 0 0 0 4.09h25.01c.29 0 .51-.23.51-.51V4.59a.51.51 0 0 0-.5-.5H6.11z" fill="currentColor"/></svg>
