<svg width="35" height="40" viewBox="0 0 35 40" xmlns="http://www.w3.org/2000/svg"><path fill-rule="evenodd" clip-rule="evenodd" d="M34.07 6.01L28.95.92c-.6-.59-1.4-.92-2.24-.92H12.33a3.17 3.17 0 0 0-3.16 3.17v5.16h-6A3.17 3.17 0 0 0 0 11.5v25.35A3.17 3.17 0 0 0 3.17 40h19.5a3.17 3.17 0 0 0 3.16-3.16v-5.17h6A3.17 3.17 0 0 0 35 28.5V8.25c0-.84-.33-1.65-.93-2.24zM22.5 35.83c0 .46-.37.84-.83.84H4.17a.83.83 0 0 1-.84-.84V12.5c0-.46.38-.83.84-.83h12.97c.22 0 .43.08.58.23l4.53 4.43c.16.16.25.37.25.6v18.9zm3.75-7.5h4.58c.46 0 .84-.37.84-.83V8.6a.83.83 0 0 0-.25-.6l-4.58-4.47a.83.83 0 0 0-.58-.24l-12.93.04a.83.83 0 0 0-.83.84v3.75c0 .23.19.41.42.41h4.63c.84 0 1.64.33 2.23.93l5.12 5.09c.6.59.93 1.4.93 2.23v11.34c0 .23.19.41.42.41z" fill="currentColor"/></svg>
