<svg width="39" height="39" viewBox="0 0 39 39" xmlns="http://www.w3.org/2000/svg"><g fill="currentColor"><path fill-rule="evenodd" clip-rule="evenodd" d="M21.94 14.04a9.1 9.1 0 0 0-2.44-6.18V3.9c0-2.15-1.82-3.9-4.06-3.9a3.98 3.98 0 0 0-4.07 3.9v.81a9.58 9.58 0 0 0-8.83 8.13 9.34 9.34 0 0 0 6.4 10.02v1l-1.39 1.33a.76.76 0 0 0 0 1.1l1.39 1.33v.92l-1.39 1.33c-.32.3-.32.8 0 1.1l1.39 1.33v2.02c0 .2.08.4.23.55l2.44 2.34a.83.83 0 0 0 1.15 0l2.44-2.34a.76.76 0 0 0 .24-.55V22.86a9.42 9.42 0 0 0 6.5-8.82zm-9.75-4.68c.9 0 1.62.7 1.62 1.56a1.6 1.6 0 0 1-1.62 1.56c-.9 0-1.63-.7-1.63-1.56 0-.86.73-1.56 1.63-1.56zm5.69-5.46c0-1.3-1.1-2.34-2.44-2.34A2.39 2.39 0 0 0 13 3.9v3.9h1.63V4.98c1.16.29 2.27.79 3.24 1.46V3.9z"/><path d="M36.33 28.12l-8.45-8.11a9.07 9.07 0 0 0-3.45-11.85.84.84 0 0 0-.98.07.76.76 0 0 0-.2.91 11.4 11.4 0 0 1-4.52 14.75.77.77 0 0 0-.34.87c.1.33.42.56.78.56h.01c1.43-.01 2.84-.32 4.13-.92l1.06.9v2c0 .43.36.78.8.78h2.1l.35.35v1.99c0 .43.36.78.8.78h1.83l1.49 1.35c.15.13.35.21.56.21h3.45a.8.8 0 0 0 .81-.78v-3.3c0-.22-.08-.41-.23-.56z"/></g></svg>
