<svg xmlns="http://www.w3.org/2000/svg" viewBox="0 0 290 61"><path d="M145.5,46C137,46,130,39,130,30.5S137,15,145.5,15S161,22,161,30.5S154,46,145.5,46z M145.5,17 c-7.4,0-13.5,6.1-13.5,13.5S138.1,44,145.5,44S159,37.9,159,30.5S152.9,17,145.5,17z" fill="currentColor"/><path d="M285.5,3H107V2c0-1.1-0.9-2-2-2H89c-1.1,0-2,0.9-2,2v1H41V2c0-1.1-0.9-2-2-2H23c-1.1,0-2,0.9-2,2v1H4 C1.8,3,0,4.8,0,7v47c0,2.2,1.8,4,4,4h281.5c2.5,0,4.5-2,4.5-4.5v-46C290,5,288,3,285.5,3z M102,40.9c0,1.1-0.9,2.1-2,2.1H28 c-1.1,0-2-0.9-2-2.1V20.1c0-1.1,0.9-2.1,2-2.1h72c1.1,0,2,0.9,2,2.1V40.9z M288,53.5c0,1.4-1.1,2.5-2.5,2.5h-140 C131.4,56,120,44.6,120,30.5C120,16.4,131.4,5,145.5,5h140c1.4,0,2.5,1.1,2.5,2.5V53.5z" fill="currentColor"/></svg>
