<svg width="32" height="47" viewBox="0 0 32 47" xmlns="http://www.w3.org/2000/svg"><path fill-rule="evenodd" clip-rule="evenodd" d="M30.5 12.96v9.552c3.93 5.944 3.165 13.69-1.859 18.818-5.024 5.129-13.03 6.337-19.451 2.935-6.421-3.401-9.625-10.548-7.783-17.363C3.248 20.087 9.667 15.336 17 15.36c2.449 0 4.864.545 7.056 1.592.31.147.677.13.971-.045a.952.952 0 0 0 .473-.816V12.96c0-4.507-3.805-8.16-8.5-8.16-4.694 0-8.5 3.653-8.5 8.16 0 1.325-1.12 2.4-2.5 2.4s-2.5-1.074-2.5-2.4C3.5 5.802 9.544 0 17 0s13.5 5.802 13.5 12.96zM13 30.72c0 2.12 1.79 3.84 4 3.84s4-1.72 4-3.84-1.79-3.84-4-3.84-4 1.72-4 3.84z" fill="currentColor"/></svg>
