<svg width="32" height="47" viewBox="0 0 32 47" xmlns="http://www.w3.org/2000/svg"><path fill-rule="evenodd" clip-rule="evenodd" d="M29.5 22.512V12.96C29.5 5.802 23.456 0 16 0S2.5 5.802 2.5 12.96v9.552c-4.26 6.43-2.966 14.887 3.041 19.868 6.007 4.982 14.911 4.982 20.918 0 6.008-4.981 7.302-13.438 3.041-19.868zM16 34.56c-2.209 0-4-1.72-4-3.84s1.791-3.84 4-3.84c2.21 0 4 1.72 4 3.84s-1.79 3.84-4 3.84zm8.027-17.653a.952.952 0 0 0 .473-.816V12.96c0-4.507-3.805-8.16-8.5-8.16-4.694 0-8.5 3.653-8.5 8.16v3.131c0 .332.179.641.473.816.294.175.661.192.971.045a16.437 16.437 0 0 1 14.112 0c.31.147.677.13.971-.045z" fill="currentColor"/></svg>
