<svg width="40" height="40" viewBox="0 0 40 40" xmlns="http://www.w3.org/2000/svg"><g fill="currentColor"><path d="M1.21 7.06c.67 0 1.21-.54 1.21-1.21l-.04-3.12a.3.3 0 0 1 .3-.3H5.7a1.21 1.21 0 1 0 0-2.43H2.37A2.4 2.4 0 0 0 0 2.42v3.43c0 .67.54 1.21 1.21 1.21zM5.69 37.58H2.73a.3.3 0 0 1-.3-.3v-3.13a1.21 1.21 0 1 0-2.43 0v3.43A2.4 2.4 0 0 0 2.37 40H5.7a1.21 1.21 0 0 0 0-2.42zM38.79 32.94c-.67 0-1.21.54-1.21 1.21l.04 3.12a.3.3 0 0 1-.3.3H34.3a1.21 1.21 0 1 0 0 2.43h3.32A2.4 2.4 0 0 0 40 37.58v-3.43c0-.67-.54-1.21-1.21-1.21zM37.63 0H34.3a1.21 1.21 0 1 0 0 2.42h2.96c.17 0 .3.14.3.3v3.13a1.21 1.21 0 0 0 2.43 0V2.42A2.4 2.4 0 0 0 37.63 0z"/><path fill-rule="evenodd" clip-rule="evenodd" d="M13.94 15.15H6.67c-.67 0-1.22-.54-1.22-1.21V6.67c0-.67.55-1.21 1.22-1.21h7.27c.67 0 1.21.54 1.21 1.2v7.28c0 .67-.54 1.21-1.21 1.21zM8.18 7.88a.3.3 0 0 0-.3.3v4.24c0 .17.13.3.3.3h4.24a.3.3 0 0 0 .3-.3V8.18a.3.3 0 0 0-.3-.3H8.18zM6.67 24.85h7.27c.67 0 1.21.54 1.21 1.21v7.27c0 .67-.54 1.22-1.21 1.22H6.67c-.67 0-1.22-.55-1.22-1.22v-7.27c0-.67.55-1.21 1.22-1.21zm5.75 7.27a.3.3 0 0 0 .3-.3v-4.24a.3.3 0 0 0-.3-.3H8.18a.3.3 0 0 0-.3.3v4.24c0 .17.13.3.3.3h4.24zM26.06 5.45h7.27c.67 0 1.21.55 1.21 1.22v7.27c0 .67-.54 1.21-1.2 1.21h-7.28c-.67 0-1.21-.54-1.21-1.21V6.67c0-.67.54-1.22 1.21-1.22zm5.76 7.28a.3.3 0 0 0 .3-.3V8.17a.3.3 0 0 0-.3-.3h-4.24a.3.3 0 0 0-.3.3v4.24c0 .17.13.3.3.3h4.24z"/><path d="M17.58 10.6h1.2a.9.9 0 1 0 0-1.81.3.3 0 0 1-.3-.3V6.66a.9.9 0 1 0-1.81 0V9.7c0 .5.4.9.9.9zM21.21 7.58c.17 0 .3.13.3.3v6.66a.9.9 0 1 0 1.82 0V6.67c0-.5-.4-.91-.9-.91H21.2a.9.9 0 1 0 0 1.82zM12.42 18.18c0 .5.41.91.91.91h4.25c.5 0 .9-.4.9-.9v-4.86a.9.9 0 1 0-1.81 0v3.64a.3.3 0 0 1-.3.3h-3.04c-.5 0-.9.4-.9.91z"/><path d="M9.09 17.27c-.5 0-.9.4-.9.91v3.03a.3.3 0 0 1-.31.3H6.67a.9.9 0 1 0 0 1.82h15.75c.5 0 .91-.4.91-.9v-3.64a.9.9 0 0 0-1.82 0v2.42a.3.3 0 0 1-.3.3h-10.9a.3.3 0 0 1-.31-.3v-3.03c0-.5-.4-.9-.91-.9zM22.12 26.06c0-.5-.4-.9-.9-.9h-3.64c-.5 0-.91.4-.91.9v4.85a.9.9 0 1 0 1.81 0v-3.64c0-.16.14-.3.3-.3h2.43c.5 0 .91-.4.91-.9zM33.33 32.42h-10.3a.3.3 0 0 1-.3-.3V29.7a.9.9 0 1 0-1.82 0v3.63c0 .5.4.91.9.91h11.52a.9.9 0 0 0 0-1.82z"/><path fill-rule="evenodd" clip-rule="evenodd" d="M29.1 30h-3.65a.9.9 0 0 1-.9-.91v-3.64c0-.5.4-.9.9-.9h3.64c.5 0 .91.4.91.9v3.64c0 .5-.4.91-.9.91zm-2.43-3.64a.3.3 0 0 0-.3.3v1.22c0 .17.13.3.3.3h1.2a.3.3 0 0 0 .31-.3v-1.21a.3.3 0 0 0-.3-.3h-1.21z"/><path d="M32.73 20.9c-.5 0-.91.42-.91.92v7.88a.9.9 0 0 0 1.82 0v-7.88c0-.5-.41-.91-.91-.91zM33.64 17.58c0-.5-.41-.91-.91-.91h-6.67c-.5 0-.9.4-.9.9v3.64a.9.9 0 0 0 1.8 0V18.8c0-.17.15-.3.31-.3h5.46c.5 0 .9-.41.9-.91z"/></g></svg>
