<svg width="30" height="28" viewBox="0 0 30 28" xmlns="http://www.w3.org/2000/svg"><path d="M27.634 15.68H9.544a1.428 1.428 0 0 1 0-2.856h18.09a1.428 1.428 0 0 1 0 2.857zM29.064 25.676c0 .789-.639 1.428-1.428 1.428h-8.569a1.428 1.428 0 0 1 0-2.856h8.57a1.428 1.428 0 0 1 1.427 1.43v-.002zM13.482 27.996a2.856 2.856 0 1 1-.282-5.705 2.856 2.856 0 0 1 .283 5.705zM1.922 24.248h4.76a1.428 1.428 0 0 1 0 2.856h-4.76a1.428 1.428 0 1 1 0-2.856zM.004 13.776a2.856 2.856 0 1 1 5.705.285 2.856 2.856 0 0 1-5.705-.285zM6.691 3.778H1.455a1.428 1.428 0 0 1 0-2.856H6.69a1.428 1.428 0 0 1 0 2.856zM13.177.004a2.856 2.856 0 1 1 .283 5.705 2.856 2.856 0 0 1-.283-5.705zM27.63 4.25h-7.616a1.428 1.428 0 0 1 0-2.855h7.617a1.428 1.428 0 0 1 0 2.856z" fill="currentColor"/></svg>
