<svg xmlns="http://www.w3.org/2000/svg" xmlns:xlink="http://www.w3.org/1999/xlink" viewBox="0 0 1080 989.92"><defs><style>.a{fill:url(#a);}.b{fill:url(#b);}</style><radialGradient id="a" cx="716.58" cy="42.39" r="995.78" gradientTransform="matrix(1.08, 0, 0, -1.12, 35.2, 1024.5)" gradientUnits="userSpaceOnUse"><stop offset="0" stop-color="#ec991c"/><stop offset="1" stop-color="#e9b213"/></radialGradient><linearGradient id="b" x1="205.48" y1="810.44" x2="647.59" y2="396.69" gradientUnits="userSpaceOnUse"><stop offset="0" stop-color="#fff" stop-opacity="0.6"/><stop offset="1" stop-color="#fff"/></linearGradient></defs><title>Recurso 1logo</title><path class="a" d="M1068,448.56,843,46.4C826.94,17.67,797.2,0,765,0h-450c-32.12,0-61.79,17.72-77.85,46.4L12.06,448.56a95.29,95.29,0,0,0,0,92.8l225,402.15c16.09,28.74,45.82,46.43,78,46.41H765c32.12,0,61.79-17.72,77.85-46.41l225-402.15A95.32,95.32,0,0,0,1068,448.56Z"/><path class="b" d="M623.34,411.54c69.63,71.87,68.67,187.1.42,257.87-.12.14-.28.3-.42.44L545,750.61c-69.06,71.22-181.44,71.21-250.49,0s-69.07-187.11,0-258.32l43.24-44.59c11.46-11.82,31.21-4,31.8,12.75a227.56,227.56,0,0,0,11.3,63.35,19.77,19.77,0,0,1-4.41,20l-15.25,15.73C328.56,593.17,327.53,648,359.87,682a82.22,82.22,0,0,0,119.24.62l78.31-80.74c32.85-33.88,32.72-88.64,0-122.37a88,88,0,0,0-12-10.3,19.4,19.4,0,0,1-8.09-15.15,48.64,48.64,0,0,1,13.63-35.81L575.44,393a18.32,18.32,0,0,1,24-2.08,179.27,179.27,0,0,1,23.91,20.67ZM787.58,242.17c-69.06-71.21-181.43-71.22-250.5,0l-78.31,80.76-.42.44c-68.25,70.77-69.2,186,.42,257.87a178.55,178.55,0,0,0,23.92,20.66,18.28,18.28,0,0,0,24-2.08l24.54-25.3a48.69,48.69,0,0,0,13.63-35.82,19.42,19.42,0,0,0-8.1-15.14,88.58,88.58,0,0,1-12-10.3c-32.71-33.74-32.85-88.49,0-122.37L603,310.15a82.22,82.22,0,0,1,119.24.61c32.34,34,31.32,88.85-1.34,122.53L705.65,449a19.8,19.8,0,0,0-4.41,20,227.48,227.48,0,0,1,11.29,63.35c.59,16.71,20.34,24.57,31.81,12.74l43.24-44.59c69.07-71.21,69.07-187.1,0-258.31Z"/></svg>