<svg width="20" height="20" viewBox="0 0 20 20" xmlns="http://www.w3.org/2000/svg"><path d="M10.01 14.82a1 1 0 0 0 1.37-.37l3.37-5.83a.17.17 0 0 1 .22-.06l.73.41a.67.67 0 0 0 1-.58l-.07-3.89a.67.67 0 0 0-.99-.57l-3.4 1.89a.67.67 0 0 0 0 1.15l.71.42c.08.05.11.15.06.23l-3.37 5.83a1 1 0 0 0 .37 1.37zM8.23 5.19l-3.55 5.76a.17.17 0 0 1-.23.06l-.55-.32a.67.67 0 0 0-1 .59l.07 3.89a.67.67 0 0 0 .99.57l3.4-1.89a.67.67 0 0 0 0-1.16l-.89-.51a.17.17 0 0 1-.07-.1.16.16 0 0 1 .02-.13l3.52-5.72a1 1 0 1 0-1.7-1.05z" fill="currentColor"/></svg>
