<svg width="24" height="24" viewBox="0 0 24 24" xmlns="http://www.w3.org/2000/svg"><g fill="currentColor"><path fill-rule="evenodd" clip-rule="evenodd" d="M18.9 6.95c1.59 1 3.03 2.21 4.3 3.6.74.82.74 2.07 0 2.9-2.56 2.81-6.79 5.8-11.04 5.8h-.3a11.26 11.26 0 0 1-4.31-.94L3.4 22.45a1 1 0 0 1-1.63-1.08l.01-.01.01-.01 19.5-19.5a.74.74 0 0 0 .18-.3l.02-.01a1 1 0 1 1 1.41 1.41l-4 4zm-5.59 9.35a4.58 4.58 0 0 0 3-3.03 4.3 4.3 0 0 0-.2-3.06.25.25 0 0 0-.4-.07l-5.57 5.56a.25.25 0 0 0 .07.4 4.3 4.3 0 0 0 3.1.2z"/><path d="M7.62 13.4a.24.24 0 0 0 .06-.24A4.32 4.32 0 0 1 7.5 12a4.5 4.5 0 0 1 5.66-4.33c.09.03.18 0 .24-.06l1.94-1.94a.25.25 0 0 0-.1-.42c-1.05-.34-2.14-.5-3.24-.5C7.7 4.69 3.4 7.7.81 10.55a2.15 2.15 0 0 0 0 2.9 21.21 21.21 0 0 0 3.43 3.03c.1.07.24.06.33-.03l3.05-3.05z"/></g></svg>
